NotoSerif-SemiBold.ufo
<glyph name="uni0244" format="2">
  <advance width="747"/>
  <unicode hex="0244"/>
  <anchor x="374" y="0" name="bottom"/>
  <anchor x="374" y="714" name="top"/>
  <anchor x="747" y="714" name="topright"/>
  <outline>
    <contour>
      <point x="10" y="342" type="line"/>
      <point x="737" y="342" type="line"/>
      <point x="737" y="403" type="line"/>
      <point x="10" y="403" type="line"/>
    </contour>
    <component base="U"/>
  </outline>
</glyph>
<glyph name="uni0248" format="2">
  <advance width="397"/>
  <unicode hex="0248"/>
  <anchor x="94" y="-240" name="bottom"/>
  <anchor x="184" y="714" name="top"/>
  <anchor x="366" y="714" name="topright"/>
  <outline>
    <contour>
      <point x="10" y="342" type="line"/>
      <point x="367" y="342" type="line"/>
      <point x="367" y="403" type="line"/>
      <point x="10" y="403" type="line"/>
    </contour>
    <component base="J"/>
  </outline>
</glyph>
<glyph name="uni024E" format="2">
  <advance width="693"/>
  <unicode hex="024E"/>
  <anchor x="347" y="0" name="bottom"/>
  <anchor x="347" y="714" name="top"/>
  <anchor x="673" y="714" name="topright"/>
  <outline>
    <contour>
      <point x="10" y="512" type="line"/>
      <point x="683" y="512" type="line"/>
      <point x="683" y="573" type="line"/>
      <point x="10" y="573" type="line"/>
    </contour>
    <component base="Y"/>
  </outline>
</glyph>
<glyph name="uni0289" format="2">
  <advance width="667"/>
  <unicode hex="0289"/>
  <anchor x="334" y="0" name="bottom"/>
  <anchor x="334" y="536" name="top"/>
  <anchor x="637" y="536" name="topright"/>
  <outline>
    <contour>
      <point x="12" y="246" type="line"/>
      <point x="656" y="246" type="line"/>
      <point x="656" y="304" type="line"/>
      <point x="12" y="304" type="line"/>
    </contour>
    <component base="u"/>
  </outline>
</glyph>
<glyph name="xabovecomb" format="2">
  <unicode hex="033D"/>
  <anchor x="0" y="536" name="_top"/>
  <anchor x="0" y="753" name="top"/>
  <outline>
    <contour>
      <point x="-50" y="580" type="line"/>
      <point x="0" y="629" type="line"/>
      <point x="49" y="580" type="line"/>
      <point x="86" y="617" type="line"/>
      <point x="38" y="666" type="line"/>
      <point x="87" y="715" type="line"/>
      <point x="50" y="753" type="line"/>
      <point x="0" y="703" type="line"/>
      <point x="-50" y="753" type="line"/>
      <point x="-87" y="716" type="line"/>
      <point x="-38" y="666" type="line"/>
      <point x="-87" y="617" type="line"/>
    </contour>
  </outline>
</glyph>
<glyph name="arrowheadleftbelowcomb" format="2">
  <unicode hex="0354"/>
  <anchor x="0" y="0" name="_bottom"/>
  <anchor x="0" y="-240" name="bottom"/>
  <outline>
    <contour>
      <point x="86" y="-240" type="curve"/>
      <point x="96" y="-240" type="line"/>
      <point x="96" y="-189" type="line"/>
      <point x="71" y="-172"/>
      <point x="36" y="-153"/>
      <point x="2" y="-140" type="curve"/>
      <point x="41" y="-126"/>
      <point x="79" y="-103"/>
      <point x="96" y="-91" type="curve"/>
      <point x="96" y="-40" type="line"/>
      <point x="86" y="-40" type="line"/>
      <point x="20" y="-77"/>
      <point x="-35" y="-102"/>
      <point x="-96" y="-111" type="curve"/>
      <point x="-96" y="-169" type="line"/>
      <point x="-36" y="-184"/>
      <point x="21" y="-204"/>
    </contour>
  </outline>
</glyph>
<glyph name="uni1ABF" format="2">
  <unicode hex="1ABF"/>
  <anchor x="0" y="0" name="_bottom"/>
  <outline>
    <contour>
      <point x="-52" y="-278" type="line"/>
      <point x="-1" y="-145" type="line"/>
      <point x="48" y="-278" type="line"/>
      <point x="97" y="-278" type="line"/>
      <point x="155" y="-116" type="line" smooth="yes"/>
      <point x="165" y="-90"/>
      <point x="171" y="-85"/>
      <point x="189" y="-85" type="curve" smooth="yes"/>
      <point x="195" y="-85" type="line"/>
      <point x="195" y="-64" type="line"/>
      <point x="92" y="-64" type="line"/>
      <point x="92" y="-85" type="line"/>
      <point x="95" y="-85" type="line" smooth="yes"/>
      <point x="115" y="-85"/>
      <point x="124" y="-91"/>
      <point x="124" y="-104" type="curve" smooth="yes"/>
      <point x="124" y="-109"/>
      <point x="123" y="-118"/>
      <point x="120" y="-124" type="curve"/>
      <point x="101" y="-183" type="line" smooth="yes"/>
      <point x="94" y="-203"/>
      <point x="91" y="-212"/>
      <point x="88" y="-226" type="curve"/>
      <point x="87" y="-226" type="line"/>
      <point x="85" y="-216"/>
      <point x="83" y="-203"/>
      <point x="75" y="-184" type="curve" smooth="yes"/>
      <point x="31" y="-66" type="line"/>
      <point x="2" y="-66" type="line"/>
      <point x="-44" y="-180" type="line" smooth="yes"/>
      <point x="-52" y="-199"/>
      <point x="-56" y="-212"/>
      <point x="-58" y="-226" type="curve"/>
      <point x="-60" y="-226" type="line"/>
      <point x="-62" y="-212"/>
      <point x="-67" y="-190"/>
      <point x="-73" y="-171" type="curve" smooth="yes"/>
      <point x="-90" y="-119" type="line" smooth="yes"/>
      <point x="-92" y="-113"/>
      <point x="-93" y="-106"/>
      <point x="-93" y="-102" type="curve" smooth="yes"/>
      <point x="-93" y="-88"/>
      <point x="-84" y="-85"/>
      <point x="-66" y="-85" type="curve" smooth="yes"/>
      <point x="-61" y="-85" type="line"/>
      <point x="-61" y="-64" type="line"/>
      <point x="-192" y="-64" type="line"/>
      <point x="-192" y="-85" type="line"/>
      <point x="-191" y="-85" type="line" smooth="yes"/>
      <point x="-173" y="-85"/>
      <point x="-166" y="-89"/>
      <point x="-159" y="-106" type="curve"/>
      <point x="-101" y="-278" type="line"/>
    </contour>
  </outline>
</glyph>
<glyph name="uni1AC0" format="2">
  <unicode hex="1AC0"/>
  <anchor x="0" y="0" name="_bottom"/>
  <outline>
    <contour>
      <point x="52" y="-64" type="line"/>
      <point x="1" y="-197" type="line"/>
      <point x="-48" y="-64" type="line"/>
      <point x="-97" y="-64" type="line"/>
      <point x="-155" y="-226" type="line" smooth="yes"/>
      <point x="-165" y="-252"/>
      <point x="-171" y="-257"/>
      <point x="-189" y="-257" type="curve" smooth="yes"/>
      <point x="-195" y="-257" type="line"/>
      <point x="-195" y="-278" type="line"/>
      <point x="-92" y="-278" type="line"/>
      <point x="-92" y="-257" type="line"/>
      <point x="-95" y="-257" type="line" smooth="yes"/>
      <point x="-115" y="-257"/>
      <point x="-124" y="-251"/>
      <point x="-124" y="-238" type="curve" smooth="yes"/>
      <point x="-124" y="-233"/>
      <point x="-123" y="-224"/>
      <point x="-120" y="-218" type="curve"/>
      <point x="-101" y="-159" type="line" smooth="yes"/>
      <point x="-94" y="-139"/>
      <point x="-91" y="-130"/>
      <point x="-88" y="-116" type="curve"/>
      <point x="-87" y="-116" type="line"/>
      <point x="-85" y="-126"/>
      <point x="-83" y="-139"/>
      <point x="-75" y="-158" type="curve" smooth="yes"/>
      <point x="-31" y="-276" type="line"/>
      <point x="-2" y="-276" type="line"/>
      <point x="44" y="-162" type="line" smooth="yes"/>
      <point x="52" y="-143"/>
      <point x="56" y="-130"/>
      <point x="58" y="-116" type="curve"/>
      <point x="60" y="-116" type="line"/>
      <point x="62" y="-130"/>
      <point x="67" y="-152"/>
      <point x="73" y="-171" type="curve" smooth="yes"/>
      <point x="90" y="-223" type="line" smooth="yes"/>
      <point x="92" y="-229"/>
      <point x="93" y="-236"/>
      <point x="93" y="-240" type="curve" smooth="yes"/>
      <point x="93" y="-254"/>
      <point x="84" y="-257"/>
      <point x="66" y="-257" type="curve" smooth="yes"/>
      <point x="61" y="-257" type="line"/>
      <point x="61" y="-278" type="line"/>
      <point x="192" y="-278" type="line"/>
      <point x="192" y="-257" type="line"/>
      <point x="191" y="-257" type="line" smooth="yes"/>
      <point x="173" y="-257"/>
      <point x="166" y="-253"/>
      <point x="159" y="-236" type="curve"/>
      <point x="101" y="-64" type="line"/>
    </contour>
  </outline>
</glyph>
<glyph name="uni1D7A" format="2">
  <advance width="1072"/>
  <unicode hex="1D7A"/>
  <anchor x="243" y="0" name="bottom_1"/>
  <anchor x="732" y="0" name="bottom_2"/>
  <anchor x="183" y="268" name="center_1"/>
  <anchor x="732" y="268" name="center_2"/>
  <anchor x="203" y="660" name="top_1"/>
  <anchor x="573" y="760" name="top_2"/>
  <anchor x="250" y="1000" name="topright_1"/>
  <anchor x="995" y="760" name="topright_2"/>
  <outline>
    <contour>
      <point x="20" y="-110" type="line"/>
      <point x="103" y="-110" type="line"/>
      <point x="849" y="760" type="line"/>
      <point x="768" y="760" type="line"/>
    </contour>
    <component base="t"/>
    <component base="h" xOffset="398"/>
  </outline>
</glyph>
<glyph name="uni1D7C" format="2">
  <advance width="393"/>
  <unicode hex="1D7C"/>
  <anchor x="197" y="0" name="bottom"/>
  <anchor x="197" y="536" name="top"/>
  <outline>
    <contour>
      <point x="4" y="258" type="line"/>
      <point x="358" y="258" type="line"/>
      <point x="358" y="316" type="line"/>
      <point x="4" y="316" type="line"/>
    </contour>
    <component base="iotaLatin"/>
  </outline>
</glyph>
<glyph name="uni1D7D" format="2">
  <advance width="645"/>
  <unicode hex="1D7D"/>
  <anchor x="172" y="-240" name="bottom"/>
  <anchor x="323" y="536" name="top"/>
  <anchor x="625" y="536" name="topright"/>
  <outline>
    <contour>
      <point x="4" y="238" type="line"/>
      <point x="666" y="238" type="line"/>
      <point x="666" y="296" type="line"/>
      <point x="4" y="296" type="line"/>
    </contour>
    <component base="p"/>
  </outline>
</glyph>
<glyph name="uni1D7F" format="2">
  <advance width="613"/>
  <unicode hex="1D7F"/>
  <anchor x="307" y="0" name="bottom"/>
  <anchor x="307" y="536" name="top"/>
  <outline>
    <contour>
      <point x="3" y="262" type="line"/>
      <point x="610" y="262" type="line"/>
      <point x="610" y="320" type="line"/>
      <point x="3" y="320" type="line"/>
    </contour>
    <component base="uni028A"/>
  </outline>
</glyph>
<glyph name="second" format="2">
  <advance width="490"/>
  <unicode hex="2033"/>
  <outline>
    <contour>
      <point x="260" y="479" type="line"/>
      <point x="342" y="479" type="line"/>
      <point x="470" y="714" type="line"/>
      <point x="302" y="714" type="line"/>
    </contour>
    <contour>
      <point x="20" y="479" type="line"/>
      <point x="102" y="479" type="line"/>
      <point x="230" y="714" type="line"/>
      <point x="62" y="714" type="line"/>
    </contour>
  </outline>
</glyph>
<glyph name="tripleprimeReversed" format="2">
  <advance width="730"/>
  <unicode hex="2037"/>
  <outline>
    <contour>
      <point x="628" y="479" type="line"/>
      <point x="710" y="479" type="line"/>
      <point x="668" y="714" type="line"/>
      <point x="500" y="714" type="line"/>
    </contour>
    <contour>
      <point x="148" y="479" type="line"/>
      <point x="230" y="479" type="line"/>
      <point x="188" y="714" type="line"/>
      <point x="20" y="714" type="line"/>
    </contour>
    <contour>
      <point x="388" y="479" type="line"/>
      <point x="470" y="479" type="line"/>
      <point x="428" y="714" type="line"/>
      <point x="260" y="714" type="line"/>
    </contour>
  </outline>
</glyph>
<glyph name="quadrupleprime" format="2">
  <advance width="970"/>
  <unicode hex="2057"/>
  <outline>
    <contour>
      <point x="740" y="479" type="line"/>
      <point x="822" y="479" type="line"/>
      <point x="950" y="714" type="line"/>
      <point x="782" y="714" type="line"/>
    </contour>
    <contour>
      <point x="20" y="479" type="line"/>
      <point x="102" y="479" type="line"/>
      <point x="230" y="714" type="line"/>
      <point x="62" y="714" type="line"/>
    </contour>
    <contour>
      <point x="260" y="479" type="line"/>
      <point x="342" y="479" type="line"/>
      <point x="470" y="714" type="line"/>
      <point x="302" y="714" type="line"/>
    </contour>
    <contour>
      <point x="500" y="479" type="line"/>
      <point x="582" y="479" type="line"/>
      <point x="710" y="714" type="line"/>
      <point x="542" y="714" type="line"/>
    </contour>
  </outline>
</glyph>
<glyph name="Euro" format="2">
  <advance width="559"/>
  <unicode hex="20AC"/>
  <outline>
    <contour>
      <point x="360" y="-10" type="curve" smooth="yes"/>
      <point x="489" y="-10"/>
      <point x="535" y="50"/>
      <point x="535" y="100" type="curve" smooth="yes"/>
      <point x="535" y="118"/>
      <point x="528" y="135"/>
      <point x="514" y="146" type="curve"/>
      <point x="491" y="100"/>
      <point x="444" y="65"/>
      <point x="380" y="65" type="curve" smooth="yes"/>
      <point x="290" y="65"/>
      <point x="243" y="132"/>
      <point x="232" y="265" type="curve"/>
      <point x="374" y="265" type="line"/>
      <point x="374" y="327" type="line"/>
      <point x="227" y="327" type="line"/>
      <point x="227" y="389" type="line"/>
      <point x="414" y="389" type="line"/>
      <point x="414" y="451" type="line"/>
      <point x="230" y="451" type="line"/>
      <point x="241" y="620"/>
      <point x="286" y="659"/>
      <point x="343" y="659" type="curve" smooth="yes"/>
      <point x="400" y="659"/>
      <point x="418" y="585"/>
      <point x="418" y="522" type="curve"/>
      <point x="498" y="522"/>
      <point x="542" y="561"/>
      <point x="542" y="607" type="curve" smooth="yes"/>
      <point x="542" y="672"/>
      <point x="471" y="722"/>
      <point x="353" y="722" type="curve" smooth="yes"/>
      <point x="220" y="722"/>
      <point x="109" y="658"/>
      <point x="85" y="451" type="curve"/>
      <point x="27" y="451" type="line"/>
      <point x="27" y="389" type="line"/>
      <point x="80" y="389" type="line"/>
      <point x="80" y="327" type="line"/>
      <point x="27" y="327" type="line"/>
      <point x="27" y="265" type="line"/>
      <point x="86" y="265" type="line"/>
      <point x="113" y="65"/>
      <point x="223" y="-10"/>
    </contour>
  </outline>
</glyph>
<glyph name="uni20AE" format="2">
  <advance width="653"/>
  <unicode hex="20AE"/>
  <anchor x="327" y="0" name="bottom"/>
  <anchor x="327" y="357" name="center"/>
  <anchor x="327" y="714" name="top"/>
  <anchor x="633" y="714" name="topright"/>
  <outline>
    <contour>
      <point x="131" y="271" type="line"/>
      <point x="548" y="458" type="line"/>
      <point x="523" y="513" type="line"/>
      <point x="106" y="326" type="line"/>
    </contour>
    <contour>
      <point x="131" y="125" type="line"/>
      <point x="548" y="312" type="line"/>
      <point x="523" y="367" type="line"/>
      <point x="106" y="180" type="line"/>
    </contour>
    <component base="T"/>
  </outline>
</glyph>
<glyph name="uni20B3" format="2">
  <advance width="753"/>
  <unicode hex="20B3"/>
  <anchor x="349" y="0" name="bottom"/>
  <anchor x="349" y="714" name="top"/>
  <outline>
    <contour>
      <point x="18" y="350" type="line"/>
      <point x="735" y="350" type="line"/>
      <point x="735" y="409" type="line"/>
      <point x="18" y="409" type="line"/>
    </contour>
    <contour>
      <point x="18" y="210" type="line"/>
      <point x="735" y="210" type="line"/>
      <point x="735" y="269" type="line"/>
      <point x="18" y="269" type="line"/>
    </contour>
    <component base="Lambda"/>
  </outline>
</glyph>
<glyph name="uni20B5" format="2">
  <advance width="668"/>
  <unicode hex="20B5"/>
  <anchor x="384" y="0" name="bottom"/>
  <anchor x="398" y="714" name="top"/>
  <anchor x="648" y="714" name="topright"/>
  <outline>
    <contour>
      <point x="361" y="-80" type="line"/>
      <point x="417" y="-80" type="line"/>
      <point x="417" y="780" type="line"/>
      <point x="361" y="780" type="line"/>
    </contour>
    <component base="C"/>
  </outline>
</glyph>
<glyph name="response" format="2">
  <advance width="707"/>
  <unicode hex="211F"/>
  <anchor x="394" y="0" name="bottom"/>
  <anchor x="354" y="714" name="top"/>
  <anchor x="687" y="714" name="topright"/>
  <outline>
    <contour>
      <point x="118" y="-125" type="line"/>
      <point x="182" y="-125" type="line"/>
      <point x="556" y="800" type="line"/>
      <point x="333" y="894" type="line"/>
      <point x="310" y="843" type="line"/>
      <point x="476" y="773" type="line"/>
    </contour>
    <component base="R"/>
  </outline>
</glyph>
<glyph name="uni2C60" format="2">
  <advance width="654"/>
  <unicode hex="2C60"/>
  <anchor x="327" y="0" name="bottom"/>
  <anchor x="327" y="714" name="top"/>
  <anchor x="205" y="357" name="center"/>
  <anchor x="634" y="714" name="topright"/>
  <outline>
    <contour>
      <point x="10" y="410" type="line"/>
      <point x="426" y="410" type="line"/>
      <point x="426" y="471" type="line"/>
      <point x="10" y="471" type="line"/>
    </contour>
    <contour>
      <point x="10" y="270" type="line"/>
      <point x="426" y="270" type="line"/>
      <point x="426" y="331" type="line"/>
      <point x="10" y="331" type="line"/>
    </contour>
    <component base="L"/>
  </outline>
</glyph>
<glyph name="uni2C61" format="2">
  <advance width="352"/>
  <unicode hex="2C61"/>
  <anchor x="176" y="0" name="bottom"/>
  <anchor x="176" y="760" name="top"/>
  <anchor x="176" y="268" name="center"/>
  <anchor x="302" y="760" name="topright"/>
  <outline>
    <contour>
      <point x="10" y="410" type="line"/>
      <point x="342" y="410" type="line"/>
      <point x="342" y="471" type="line"/>
      <point x="10" y="471" type="line"/>
    </contour>
    <contour>
      <point x="10" y="270" type="line"/>
      <point x="342" y="270" type="line"/>
      <point x="342" y="331" type="line"/>
      <point x="10" y="331" type="line"/>
    </contour>
    <component base="l"/>
  </outline>
</glyph>
<glyph name="uni2C66" format="2">
  <advance width="405"/>
  <unicode hex="2C66"/>
  <anchor x="203" y="-206" name="bottom"/>
  <anchor x="203" y="714" name="top"/>
  <anchor x="183" y="268" name="center"/>
  <anchor x="250" y="1000" name="topright"/>
  <outline>
    <contour>
      <point x="72" y="-206" type="line"/>
      <point x="144" y="-206" type="line"/>
      <point x="393" y="714" type="line"/>
      <point x="323" y="714" type="line"/>
    </contour>
    <component base="t"/>
  </outline>
</glyph>
<glyph name="uni2E4C" format="2">
  <advance width="326"/>
  <unicode hex="2E4C"/>
  <outline>
    <contour>
      <point x="153" y="153" type="curve" smooth="yes"/>
      <point x="109" y="153"/>
      <point x="71" y="133"/>
      <point x="71" y="73" type="curve" smooth="yes"/>
      <point x="71" y="12"/>
      <point x="109" y="-7"/>
      <point x="153" y="-7" type="curve" smooth="yes"/>
      <point x="199" y="-7"/>
      <point x="235" y="12"/>
      <point x="235" y="73" type="curve" smooth="yes"/>
      <point x="235" y="133"/>
      <point x="199" y="153"/>
    </contour>
    <component base="uni2E45" xScale="0" xyScale="-1" yxScale="1" yScale="0" xOffset="-112" yOffset="591"/>
  </outline>
</glyph>
<glyph name="uniA680" format="2">
  <advance width="708"/>
  <unicode hex="A680"/>
  <anchor x="354" y="0" name="bottom"/>
  <anchor x="354" y="714" name="top"/>
  <outline>
    <contour>
      <point x="256" y="714" type="line"/>
      <point x="327" y="714" type="line"/>
      <point x="327" y="839" type="line"/>
      <point x="256" y="839" type="line"/>
    </contour>
    <component base="afii10021"/>
  </outline>
</glyph>
<glyph name="uniA681" format="2">
  <advance width="625"/>
  <unicode hex="A681"/>
  <anchor x="313" y="0" name="bottom"/>
  <anchor x="313" y="536" name="top"/>
  <outline>
    <contour>
      <point x="190" y="536" type="line"/>
      <point x="255" y="536" type="line"/>
      <point x="265" y="659" type="line"/>
      <point x="200" y="659" type="line"/>
    </contour>
    <component base="afii10069"/>
  </outline>
</glyph>
<glyph name="uniA741" format="2">
  <advance width="636"/>
  <unicode hex="A741"/>
  <anchor x="318" y="760" name="top"/>
  <anchor x="318" y="0" name="bottom"/>
  <anchor x="486" y="900" name="topright"/>
  <outline>
    <contour>
      <point x="17" y="580" type="line"/>
      <point x="374" y="580" type="line"/>
      <point x="374" y="637" type="line"/>
      <point x="17" y="637" type="line"/>
    </contour>
    <component base="k"/>
  </outline>
</glyph>
<glyph name="uniA743" format="2">
  <advance width="636"/>
  <unicode hex="A743"/>
  <anchor x="318" y="760" name="top"/>
  <anchor x="318" y="0" name="bottom"/>
  <anchor x="486" y="900" name="topright"/>
  <outline>
    <contour>
      <point x="317" y="87" type="line"/>
      <point x="538" y="254" type="line"/>
      <point x="507" y="296" type="line"/>
      <point x="286" y="130" type="line"/>
    </contour>
    <component base="k"/>
  </outline>
</glyph>
<glyph name="uniA748" format="2">
  <advance width="654"/>
  <unicode hex="A748"/>
  <anchor x="327" y="0" name="bottom"/>
  <anchor x="205" y="357" name="center"/>
  <anchor x="202" y="714" name="top"/>
  <anchor x="634" y="714" name="topright"/>
  <outline>
    <contour>
      <point x="28" y="535" type="line"/>
      <point x="373" y="535" type="line"/>
      <point x="373" y="592" type="line"/>
      <point x="28" y="592" type="line"/>
    </contour>
    <component base="L"/>
  </outline>
</glyph>
<glyph name="uniA749" format="2">
  <advance width="352"/>
  <unicode hex="A749"/>
  <anchor x="176" y="0" name="bottom"/>
  <anchor x="176" y="268" name="center"/>
  <anchor x="176" y="760" name="top"/>
  <anchor x="302" y="760" name="topright"/>
  <outline>
    <contour>
      <point x="17" y="580" type="line"/>
      <point x="335" y="580" type="line"/>
      <point x="335" y="637" type="line"/>
      <point x="17" y="637" type="line"/>
    </contour>
    <component base="l"/>
  </outline>
</glyph>
<glyph name="uniA74B" format="2">
  <advance width="613"/>
  <unicode hex="A74B"/>
  <anchor x="307" y="0" name="bottom"/>
  <anchor x="307" y="268" name="center"/>
  <anchor x="307" y="536" name="top"/>
  <anchor x="593" y="536" name="topright"/>
  <outline>
    <contour>
      <point x="0" y="249" type="line"/>
      <point x="613" y="249" type="line"/>
      <point x="613" y="308" type="line"/>
      <point x="0" y="308" type="line"/>
    </contour>
    <component base="o"/>
  </outline>
</glyph>
<glyph name="uniA751" format="2">
  <advance width="645"/>
  <unicode hex="A751"/>
  <anchor x="172" y="-240" name="bottom"/>
  <anchor x="323" y="536" name="top"/>
  <anchor x="625" y="536" name="topright"/>
  <outline>
    <contour>
      <point x="13" y="-115" type="line"/>
      <point x="371" y="-115" type="line"/>
      <point x="371" y="-58" type="line"/>
      <point x="13" y="-58" type="line"/>
    </contour>
    <component base="p"/>
  </outline>
</glyph>
<glyph name="uniA756" format="2">
  <advance width="787"/>
  <unicode hex="A756"/>
  <anchor x="394" y="-240" name="bottom"/>
  <anchor x="394" y="714" name="top"/>
  <anchor x="767" y="714" name="topright"/>
  <outline>
    <contour>
      <point x="302" y="-213" type="line"/>
      <point x="618" y="-84" type="line"/>
      <point x="598" y="-33" type="line"/>
      <point x="282" y="-161" type="line"/>
    </contour>
    <component base="Q"/>
  </outline>
</glyph>
<glyph name="uniA75E" format="2">
  <advance width="698"/>
  <unicode hex="A75E"/>
  <anchor x="349" y="0" name="bottom"/>
  <anchor x="379" y="714" name="top"/>
  <anchor x="678" y="714" name="topright"/>
  <outline>
    <contour>
      <point x="118" y="0" type="line"/>
      <point x="178" y="0" type="line"/>
      <point x="431" y="714" type="line"/>
      <point x="371" y="714" type="line"/>
    </contour>
    <component base="V"/>
  </outline>
</glyph>
<glyph name="uniA767" format="2">
  <advance width="645"/>
  <unicode hex="A767"/>
  <anchor x="323" y="-240" name="bottom"/>
  <anchor x="323" y="760" name="top"/>
  <outline>
    <contour>
      <point x="27" y="-119" type="line"/>
      <point x="365" y="-119" type="line"/>
      <point x="365" y="-62" type="line"/>
      <point x="27" y="-62" type="line"/>
    </contour>
    <component base="thorn"/>
  </outline>
</glyph>
<glyph name="uniA793" format="2">
  <advance width="583"/>
  <unicode hex="A793"/>
  <anchor x="335" y="0" name="bottom"/>
  <anchor x="342" y="536" name="top"/>
  <anchor x="558" y="536" name="topright"/>
  <outline>
    <contour>
      <point x="15" y="245" type="line"/>
      <point x="361" y="245" type="line"/>
      <point x="361" y="306" type="line"/>
      <point x="15" y="306" type="line"/>
    </contour>
    <component base="c" xOffset="51"/>
  </outline>
</glyph>
<glyph name="uniA799" format="2">
  <advance width="407"/>
  <unicode hex="A799"/>
  <anchor x="204" y="0" name="bottom"/>
  <anchor x="294" y="769" name="top"/>
  <anchor x="487" y="769" name="topright"/>
  <outline>
    <contour>
      <point x="23" y="238" type="line"/>
      <point x="390" y="238" type="line"/>
      <point x="390" y="306" type="line"/>
      <point x="23" y="306" type="line"/>
    </contour>
    <component base="f"/>
  </outline>
</glyph>
<glyph name="uniA7A2" format="2">
  <advance width="734"/>
  <unicode hex="A7A2"/>
  <anchor x="415" y="0" name="bottom"/>
  <anchor x="400" y="714" name="top"/>
  <anchor x="714" y="714" name="topright"/>
  <outline>
    <contour>
      <point x="28" y="111" type="line"/>
      <point x="680" y="248" type="line"/>
      <point x="680" y="306" type="line"/>
      <point x="28" y="169" type="line"/>
    </contour>
    <component base="K"/>
  </outline>
</glyph>
<glyph name="uniA7A3" format="2">
  <advance width="636"/>
  <unicode hex="A7A3"/>
  <anchor x="318" y="760" name="top"/>
  <anchor x="318" y="0" name="bottom"/>
  <anchor x="486" y="900" name="topright"/>
  <outline>
    <contour>
      <point x="29" y="79" type="line"/>
      <point x="571" y="193" type="line"/>
      <point x="571" y="243" type="line"/>
      <point x="29" y="129" type="line"/>
    </contour>
    <component base="k"/>
  </outline>
</glyph>
<glyph name="uniA7A5" format="2">
  <advance width="667"/>
  <unicode hex="A7A5"/>
  <anchor x="336" y="0" name="bottom"/>
  <anchor x="363" y="536" name="top"/>
  <anchor x="637" y="536" name="topright"/>
  <outline>
    <contour>
      <point x="20" y="177" type="line"/>
      <point x="641" y="293" type="line"/>
      <point x="641" y="347" type="line"/>
      <point x="20" y="231" type="line"/>
    </contour>
    <component base="n"/>
  </outline>
</glyph>
<glyph name="uniA7A6" format="2">
  <advance width="707"/>
  <unicode hex="A7A6"/>
  <anchor x="394" y="0" name="bottom"/>
  <anchor x="354" y="714" name="top"/>
  <anchor x="687" y="714" name="topright"/>
  <outline>
    <contour>
      <point x="28" y="415" type="line"/>
      <point x="700" y="566" type="line"/>
      <point x="700" y="624" type="line"/>
      <point x="28" y="473" type="line"/>
    </contour>
    <component base="R"/>
  </outline>
</glyph>
<glyph name="uniA7A7" format="2">
  <advance width="523"/>
  <unicode hex="A7A7"/>
  <anchor x="192" y="0" name="bottom"/>
  <anchor x="272" y="536" name="top"/>
  <anchor x="503" y="536" name="topright"/>
  <outline>
    <contour>
      <point x="20" y="175" type="line"/>
      <point x="369" y="245" type="line"/>
      <point x="369" y="299" type="line"/>
      <point x="20" y="229" type="line"/>
    </contour>
    <component base="r"/>
  </outline>
</glyph>
<glyph name="uniA7A9" format="2">
  <advance width="488"/>
  <unicode hex="A7A9"/>
  <anchor x="244" y="0" name="bottom"/>
  <anchor x="244" y="536" name="top"/>
  <anchor x="468" y="536" name="topright"/>
  <outline>
    <contour>
      <point x="17" y="195" type="line"/>
      <point x="467" y="310" type="line"/>
      <point x="467" y="364" type="line"/>
      <point x="17" y="249" type="line"/>
    </contour>
    <component base="s"/>
  </outline>
</glyph>
<glyph name="uniA7AF" format="2">
  <advance width="691"/>
  <unicode hex="A7AF"/>
  <anchor x="346" y="0" name="bottom"/>
  <anchor x="346" y="286" name="center"/>
  <anchor x="346" y="571" name="top"/>
  <anchor x="671" y="571" name="topright"/>
  <outline>
    <contour>
      <point x="487" y="-227" type="curve" smooth="yes"/>
      <point x="557" y="-227" type="line"/>
      <point x="557" y="-169" type="line"/>
      <point x="541" y="-169" type="line" smooth="yes"/>
      <point x="466" y="-169"/>
      <point x="418" y="-124"/>
      <point x="418" y="13" type="curve"/>
      <point x="251" y="9" type="line"/>
      <point x="251" y="-150"/>
      <point x="367" y="-227"/>
    </contour>
    <component base="o.sc"/>
  </outline>
</glyph>
<glyph name="uniA7B9" format="2">
  <advance width="667"/>
  <unicode hex="A7B9"/>
  <anchor x="563" y="0" name="bottom"/>
  <anchor x="334" y="536" name="top"/>
  <anchor x="637" y="536" name="topright"/>
  <outline>
    <contour>
      <point x="114" y="-11" type="line"/>
      <point x="185" y="-11" type="line"/>
      <point x="612" y="581" type="line"/>
      <point x="542" y="581" type="line"/>
    </contour>
    <component base="u"/>
  </outline>
</glyph>
<glyph name="uniA7C3" format="2">
  <advance width="872"/>
  <unicode hex="A7C3"/>
  <outline>
    <contour>
      <point x="80" y="435" type="curve" smooth="yes"/>
      <point x="244" y="0" type="line"/>
      <point x="359" y="0" type="line"/>
      <point x="526" y="402" type="line" smooth="yes"/>
      <point x="546" y="451"/>
      <point x="572" y="476"/>
      <point x="612" y="476" type="curve" smooth="yes"/>
      <point x="651" y="476"/>
      <point x="676" y="446"/>
      <point x="676" y="389" type="curve" smooth="yes"/>
      <point x="676" y="344"/>
      <point x="659" y="312"/>
      <point x="620" y="303" type="curve"/>
      <point x="594" y="308"/>
      <point x="571" y="310"/>
      <point x="558" y="310" type="curve" smooth="yes"/>
      <point x="539" y="310"/>
      <point x="524" y="299"/>
      <point x="524" y="282" type="curve" smooth="yes"/>
      <point x="524" y="265"/>
      <point x="538" y="256"/>
      <point x="557" y="256" type="curve" smooth="yes"/>
      <point x="570" y="256"/>
      <point x="595" y="259"/>
      <point x="623" y="265" type="curve"/>
      <point x="682" y="253"/>
      <point x="699" y="214"/>
      <point x="699" y="148" type="curve" smooth="yes"/>
      <point x="699" y="86"/>
      <point x="665" y="47"/>
      <point x="608" y="47" type="curve" smooth="yes"/>
      <point x="601" y="47" type="line"/>
      <point x="509" y="195"/>
      <point x="467" y="298"/>
      <point x="467" y="417" type="curve" smooth="yes"/>
      <point x="467" y="480"/>
      <point x="472" y="547"/>
      <point x="503" y="626" type="curve"/>
      <point x="369" y="626" type="line"/>
      <point x="340" y="546"/>
      <point x="337" y="476"/>
      <point x="337" y="410" type="curve" smooth="yes"/>
      <point x="337" y="279"/>
      <point x="381" y="162"/>
      <point x="476" y="0" type="curve"/>
      <point x="602" y="0" type="line" smooth="yes"/>
      <point x="758" y="0"/>
      <point x="825" y="51"/>
      <point x="825" y="146" type="curve" smooth="yes"/>
      <point x="825" y="218"/>
      <point x="788" y="266"/>
      <point x="702" y="285" type="curve"/>
      <point x="773" y="308"/>
      <point x="802" y="345"/>
      <point x="802" y="400" type="curve" smooth="yes"/>
      <point x="802" y="486"/>
      <point x="735" y="532"/>
      <point x="631" y="532" type="curve" smooth="yes"/>
      <point x="553" y="532"/>
      <point x="510" y="501"/>
      <point x="477" y="422" type="curve" smooth="yes"/>
      <point x="345" y="109" type="line"/>
      <point x="336" y="146"/>
      <point x="324" y="181"/>
      <point x="311" y="218" type="curve" smooth="yes"/>
      <point x="244" y="407" type="line" smooth="yes"/>
      <point x="240" y="418"/>
      <point x="235" y="435"/>
      <point x="235" y="451" type="curve" smooth="yes"/>
      <point x="235" y="472"/>
      <point x="248" y="483"/>
      <point x="268" y="483" type="curve" smooth="yes"/>
      <point x="310" y="483" type="line"/>
      <point x="310" y="536" type="line"/>
      <point x="0" y="536" type="line"/>
      <point x="0" y="483" type="line"/>
      <point x="44" y="483"/>
      <point x="66" y="473"/>
    </contour>
  </outline>
</glyph>
<glyph name="uniA7C7" format="2">
  <advance width="767"/>
  <unicode hex="A7C7"/>
  <anchor x="370" y="0" name="bottom"/>
  <anchor x="384" y="357" name="center"/>
  <anchor x="372" y="714" name="top"/>
  <anchor x="747" y="714" name="topright"/>
  <outline>
    <contour>
      <point x="151" y="340" type="line"/>
      <point x="682" y="340" type="line"/>
      <point x="682" y="393" type="line"/>
      <point x="151" y="393" type="line"/>
    </contour>
    <component base="D"/>
  </outline>
</glyph>
<glyph name="uniA7C8" format="2">
  <advance width="649"/>
  <unicode hex="A7C8"/>
  <anchor x="325" y="0" name="bottom"/>
  <anchor x="325" y="268" name="center"/>
  <anchor x="474" y="760" name="top"/>
  <anchor x="619" y="760" name="topright"/>
  <outline>
    <contour>
      <point x="77" y="247" type="line"/>
      <point x="518" y="247" type="line"/>
      <point x="518" y="300" type="line"/>
      <point x="77" y="300" type="line"/>
    </contour>
    <component base="d"/>
  </outline>
</glyph>
<glyph name="uniA7C9" format="2">
  <advance width="586"/>
  <unicode hex="A7C9"/>
  <anchor x="293" y="0" name="bottom"/>
  <anchor x="293" y="714" name="top"/>
  <anchor x="566" y="714" name="topright"/>
  <outline>
    <contour>
      <point x="20" y="340" type="line"/>
      <point x="546" y="340" type="line"/>
      <point x="546" y="393" type="line"/>
      <point x="20" y="393" type="line"/>
    </contour>
    <component base="S"/>
  </outline>
</glyph>
<glyph name="uniA7CA" format="2">
  <advance width="488"/>
  <unicode hex="A7CA"/>
  <anchor x="244" y="0" name="bottom"/>
  <anchor x="244" y="536" name="top"/>
  <anchor x="468" y="536" name="topright"/>
  <outline>
    <contour>
      <point x="20" y="257" type="line"/>
      <point x="458" y="257" type="line"/>
      <point x="458" y="310" type="line"/>
      <point x="20" y="310" type="line"/>
    </contour>
    <component base="s"/>
  </outline>
</glyph>
<glyph name="uniAB30" format="2">
  <advance width="649"/>
  <unicode hex="AB30"/>
  <anchor x="325" y="0" name="bottom"/>
  <anchor x="325" y="536" name="top"/>
  <outline>
    <contour>
      <point x="-26" y="257" type="line"/>
      <point x="633" y="257" type="line"/>
      <point x="633" y="311" type="line"/>
      <point x="-26" y="311" type="line"/>
    </contour>
    <component base="uni0251"/>
  </outline>
</glyph>
<glyph name="uniAB66" format="2">
  <advance width="1259"/>
  <unicode hex="AB66"/>
  <anchor x="520" y="0" name="bottom"/>
  <anchor x="520" y="760" name="top"/>
  <outline>
    <contour>
      <point x="1119" y="-240" type="curve" smooth="yes"/>
      <point x="1197" y="-240"/>
      <point x="1239" y="-213"/>
      <point x="1239" y="-165" type="curve" smooth="yes"/>
      <point x="1239" y="-130"/>
      <point x="1215" y="-99"/>
      <point x="1180" y="-99" type="curve" smooth="yes"/>
      <point x="1100" y="-99"/>
      <point x="1131" y="-166"/>
      <point x="1073" y="-166" type="curve" smooth="yes"/>
      <point x="1025" y="-166"/>
      <point x="1005" y="-115"/>
      <point x="1005" y="-51" type="curve" smooth="yes"/>
      <point x="1005" y="81" type="line"/>
      <point x="953" y="131" type="line"/>
      <point x="953" y="-61" type="line" smooth="yes"/>
      <point x="953" y="-195"/>
      <point x="1044" y="-240"/>
    </contour>
    <component base="dzlig"/>
  </outline>
</glyph>
<glyph name="uniAB67" format="2">
  <advance width="841"/>
  <unicode hex="AB67"/>
  <anchor x="434" y="0" name="bottom"/>
  <anchor x="434" y="659" name="top"/>
  <outline>
    <contour>
      <point x="579" y="-240" type="curve" smooth="yes"/>
      <point x="657" y="-240"/>
      <point x="699" y="-213"/>
      <point x="699" y="-165" type="curve" smooth="yes"/>
      <point x="699" y="-130"/>
      <point x="675" y="-99"/>
      <point x="640" y="-99" type="curve" smooth="yes"/>
      <point x="560" y="-99"/>
      <point x="591" y="-166"/>
      <point x="533" y="-166" type="curve" smooth="yes"/>
      <point x="485" y="-166"/>
      <point x="465" y="-115"/>
      <point x="465" y="-51" type="curve" smooth="yes"/>
      <point x="465" y="61" type="line"/>
      <point x="413" y="61" type="line"/>
      <point x="413" y="-61" type="line" smooth="yes"/>
      <point x="413" y="-195"/>
      <point x="504" y="-240"/>
    </contour>
    <component base="tslig"/>
  </outline>
</glyph>
<glyph name="uniAB69" format="2">
  <advance width="558"/>
  <unicode hex="AB69"/>
  <anchor x="260.6" y="287.4" name="bottom"/>
  <anchor x="0.6" y="287.4" name="bottomleft"/>
  <anchor x="278.8" y="609" name="top"/>
  <outline>
    <contour>
      <point x="357" y="609" type="line"/>
      <point x="282" y="410" type="line"/>
      <point x="211" y="609" type="line"/>
      <point x="141" y="609" type="line"/>
      <point x="57" y="366" type="line" smooth="yes"/>
      <point x="44" y="327"/>
      <point x="34" y="319"/>
      <point x="8" y="319" type="curve" smooth="yes"/>
      <point x="0" y="319" type="line"/>
      <point x="0" y="287" type="line"/>
      <point x="149" y="287" type="line"/>
      <point x="149" y="319" type="line"/>
      <point x="144" y="319" type="line" smooth="yes"/>
      <point x="116" y="319"/>
      <point x="101" y="328"/>
      <point x="101" y="349" type="curve" smooth="yes"/>
      <point x="101" y="355"/>
      <point x="104" y="368"/>
      <point x="107" y="379" type="curve" smooth="yes"/>
      <point x="136" y="466" type="line" smooth="yes"/>
      <point x="146" y="496"/>
      <point x="149" y="511"/>
      <point x="153" y="530" type="curve"/>
      <point x="155" y="530" type="line"/>
      <point x="158" y="515"/>
      <point x="162" y="496"/>
      <point x="172" y="467" type="curve" smooth="yes"/>
      <point x="236" y="290" type="line"/>
      <point x="278" y="290" type="line"/>
      <point x="344" y="461" type="line" smooth="yes"/>
      <point x="356" y="491"/>
      <point x="361" y="511"/>
      <point x="365" y="530" type="curve"/>
      <point x="367" y="530" type="line"/>
      <point x="371" y="511"/>
      <point x="378" y="477"/>
      <point x="387" y="448" type="curve" smooth="yes"/>
      <point x="411" y="370" type="line" smooth="yes"/>
      <point x="413" y="361"/>
      <point x="416" y="351"/>
      <point x="416" y="344" type="curve" smooth="yes"/>
      <point x="416" y="325"/>
      <point x="403" y="319"/>
      <point x="377" y="319" type="curve" smooth="yes"/>
      <point x="369" y="319" type="line"/>
      <point x="369" y="287" type="line"/>
      <point x="559" y="287" type="line"/>
      <point x="559" y="319" type="line"/>
      <point x="557" y="319" type="line" smooth="yes"/>
      <point x="532" y="319"/>
      <point x="521" y="326"/>
      <point x="511" y="351" type="curve"/>
      <point x="428" y="609" type="line"/>
    </contour>
  </outline>
</glyph>
<glyph name="hbar.sc" format="2">
  <advance width="710"/>
  <anchor x="355" y="0" name="bottom"/>
  <anchor x="355" y="571" name="top"/>
  <anchor x="355" y="286" name="center"/>
  <anchor x="690" y="571" name="topright"/>
  <outline>
    <contour>
      <point x="21" y="399" type="line"/>
      <point x="689" y="399" type="line"/>
      <point x="689" y="446" type="line"/>
      <point x="21" y="446" type="line"/>
    </contour>
    <component base="h.sc"/>
  </outline>
</glyph>
<glyph name="tbar.sc" format="2">
  <advance width="582"/>
  <anchor x="291" y="0" name="bottom"/>
  <anchor x="291" y="571" name="top"/>
  <anchor x="291" y="286" name="center"/>
  <anchor x="562" y="571" name="topright"/>
  <outline>
    <contour>
      <point x="105" y="256" type="line"/>
      <point x="477" y="256" type="line"/>
      <point x="477" y="309" type="line"/>
      <point x="105" y="309" type="line"/>
    </contour>
    <component base="t.sc"/>
  </outline>
</glyph>
